<svg width="28" height="22" viewBox="0 0 28 22" fill="none" xmlns="http://www.w3.org/2000/svg">
<path d="M26.25 21.25H1.75024C0.783709 21.25 0.000244141 20.4665 0.000244141 19.5C0.000244141 18.5335 0.783709 17.75 1.75024 17.75H26.25C27.2165 17.75 28 18.5335 28 19.5C28 20.4665 27.2165 21.25 26.25 21.25Z" fill="white"/>
<path d="M26.2497 12.4999H1.74999C0.783465 12.4999 0 11.7165 0 10.75C0 9.78353 0.783465 9 1.74999 9H26.2498C27.2163 9 27.9998 9.78347 27.9998 10.75C27.9998 11.7165 27.2163 12.4999 26.2497 12.4999Z" fill="white"/>
<path d="M26.2497 3.74999H1.74999C0.783465 3.74999 0 2.96652 0 1.99999C0 1.03347 0.783465 0.25 1.74999 0.25H26.2498C27.2163 0.25 27.9998 1.03347 27.9998 1.99999C27.9998 2.96652 27.2163 3.74999 26.2497 3.74999Z" fill="white"/>
</svg>
