<svg width="18" height="21" viewBox="0 0 18 21" fill="none" xmlns="http://www.w3.org/2000/svg">
<path d="M17.25 4.95832C17.25 6.72748 15.8108 8.16665 14.0417 8.16665C12.2725 8.16665 10.8333 6.72748 10.8333 4.95832C10.8333 3.18915 12.2725 1.74998 14.0417 1.74998C15.8108 1.74998 17.25 3.18915 17.25 4.95832ZM15.4167 9.80748C14.9583 9.92665 14.5 9.99998 14.0417 9.99998C12.7053 9.99756 11.4243 9.46561 10.4793 8.52064C9.53438 7.57567 9.00242 6.29471 9 4.95832C9 3.61082 9.53167 2.39165 10.375 1.48415C10.2086 1.28023 9.99889 1.11599 9.76102 1.0034C9.52316 0.890809 9.26317 0.832704 9 0.833318C7.99167 0.833318 7.16667 1.65832 7.16667 2.66665V2.93248C4.44417 3.73915 2.58333 6.24165 2.58333 9.08332V14.5833L0.75 16.4167V17.3333H17.25V16.4167L15.4167 14.5833V9.80748ZM9 20.0833C10.0175 20.0833 10.8333 19.2675 10.8333 18.25H7.16667C7.16667 18.7362 7.35982 19.2025 7.70364 19.5463C8.04745 19.8902 8.51377 20.0833 9 20.0833Z" fill="white"/>
</svg>
