<svg width="22" height="20" viewBox="0 0 22 20" fill="none" xmlns="http://www.w3.org/2000/svg">
<path d="M0 7.98329L7.94144 12.53L10.0045 9.94143L1.64243 5.52615L0 7.98329Z" fill="#2196F3"/>
<path d="M11.9731 9.93179L14.0439 12.5301L21.9999 7.97497L20.3352 5.34686L11.9731 9.93179Z" fill="#2196F3"/>
<path d="M2.84766 4.70572L10.987 9.00339L19.1381 4.53414L11.0048 0.692322L2.84766 4.70572Z" fill="#2196F3"/>
<path d="M2.07373 14.9383L10.3489 19.3077V11.576L8.60425 13.765C8.40625 14.0135 8.05674 14.0804 7.78099 13.9225L2.07373 10.6549V14.9383Z" fill="#2196F3"/>
<path d="M11.6365 11.576V19.2877L19.9117 14.744V10.6549L14.2044 13.9224C13.9287 14.0802 13.5792 14.0134 13.3812 13.765L11.6365 11.576Z" fill="#2196F3"/>
</svg>
