<svg width="23" height="23" viewBox="0 0 23 23" fill="none" xmlns="http://www.w3.org/2000/svg">
<path d="M0 4.69998C0 2.49085 1.79086 0.699982 4 0.699982H22.3V23H4C1.79086 23 0 21.2091 0 19V4.69998Z" fill="#2196F3"/>
<path d="M17.6543 3.48749H4.64593C3.61456 3.48749 2.7876 4.31445 2.7876 5.34582V9.06249H4.64593V5.34582H17.6543V18.3542H4.64593V14.6375H2.7876V18.3542C2.7876 18.847 2.98339 19.3197 3.33189 19.6682C3.6804 20.0167 4.15307 20.2125 4.64593 20.2125H17.6543C18.1471 20.2125 18.6198 20.0167 18.9683 19.6682C19.3168 19.3197 19.5126 18.847 19.5126 18.3542V5.34582C19.5126 4.85296 19.3168 4.38029 18.9683 4.03178C18.6198 3.68328 18.1471 3.48749 17.6543 3.48749ZM9.3661 15.1764L10.6855 16.4958L15.3313 11.85L10.6855 7.20415L9.3661 8.51428L11.7726 10.9208H2.7876V12.7792H11.7726L9.3661 15.1764Z" fill="white"/>
</svg>
