<svg width="96" height="23" viewBox="0 0 96 23" fill="none" xmlns="http://www.w3.org/2000/svg">
<path d="M24.15 22.3H4.6C2.35 22.3 0.5 20.5 0.5 18.2V4.1C0.5 1.85 2.35 0 4.6 0H24.15V22.3Z" fill="#2196F3"/>
<path d="M85.3499 22.3H26.2V0H85.3499C87.6499 0 89.4499 1.85 89.4499 4.1V18.2C89.4499 20.5 87.5999 22.3 85.3499 22.3Z" fill="#2196F3"/>
<path d="M5.30029 6.99998V4.14998H19.3503V18.15H5.30029V15.35" stroke="white" stroke-width="3" stroke-miterlimit="10" stroke-linejoin="round"/>
<path d="M14.6002 11.15L12.1502 13.05L9.75024 14.9V11.15V7.39998L12.1502 9.29998L14.6002 11.15Z" fill="white"/>
<path d="M10.8503 9.55H5.30029V12.8H10.8503V9.55Z" fill="white"/>
<path d="M36.43 11.01C36.43 13.1 37.96 14.56 39.91 14.56C41.42 14.56 42.62 13.81 43.14 12.47H42.05C41.67 13.3 40.93 13.77 39.91 13.77C38.45 13.77 37.36 12.71 37.36 11.01C37.36 9.3 38.45 8.24 39.91 8.24C40.93 8.24 41.67 8.71 42.05 9.55H43.14C42.62 8.2 41.42 7.44 39.91 7.44C37.96 7.44 36.43 8.92 36.43 11.01ZM48.9546 14.5H49.8646V7.53H48.9546V10.59H45.4046V7.53H44.4946V14.5H45.4046V11.34H48.9546V14.5ZM55.1587 7.52H51.4087V14.5H55.1587V13.75H52.3187V11.35H54.8587V10.6H52.3187V8.27H55.1587V7.52ZM56.1956 11.01C56.1956 13.1 57.7256 14.56 59.6756 14.56C61.1856 14.56 62.3856 13.81 62.9056 12.47H61.8156C61.4356 13.3 60.6956 13.77 59.6756 13.77C58.2156 13.77 57.1256 12.71 57.1256 11.01C57.1256 9.3 58.2156 8.24 59.6756 8.24C60.6956 8.24 61.4356 8.71 61.8156 9.55H62.9056C62.3856 8.2 61.1856 7.44 59.6756 7.44C57.7256 7.44 56.1956 8.92 56.1956 11.01ZM68.0402 14.5H69.2302L66.0402 11.02L69.2002 7.53H68.0502L65.1702 10.76V7.53H64.2602V14.5H65.1702V11.32L68.0402 14.5ZM72.9126 14.5H73.8226V7.53H72.9126V14.5ZM79.9435 7.52V13.06L76.2835 7.52H75.3735V14.5H76.2835V8.95L79.9435 14.5H80.8535V7.52H79.9435Z" fill="white"/>
</svg>
