<svg width="33" height="29" viewBox="0 0 33 29" fill="none" xmlns="http://www.w3.org/2000/svg">
<g filter="url(#filter0_d_335_1238)">
<rect x="2" y="2" width="31" height="25" fill="#E3F5FF"/>
</g>
<path d="M10.1056 9.78273L15.3764 16.4332C15.4552 16.5313 15.499 16.6566 15.4999 16.7866V20.8262C15.4993 20.8828 15.5154 20.9382 15.5456 20.9843C15.5759 21.0304 15.6188 21.0651 15.6683 21.0832L18.1732 21.9861C18.2107 21.9997 18.2506 22.0034 18.2896 21.9969C18.3286 21.9904 18.3656 21.974 18.3976 21.9489C18.4296 21.9238 18.4556 21.8908 18.4734 21.8526C18.4912 21.8145 18.5004 21.7722 18.5001 21.7295V16.7866C18.5014 16.6564 18.5458 16.531 18.6252 16.4332L23.8944 9.78273C23.9489 9.71398 23.9841 9.62974 23.9957 9.54001C24.0074 9.45028 23.9951 9.35881 23.9602 9.27644C23.9253 9.19407 23.8694 9.12425 23.799 9.07525C23.7287 9.02626 23.6468 9.00014 23.5631 9H10.4384C10.3546 8.99982 10.2726 9.0257 10.202 9.07457C10.1314 9.12343 10.0752 9.19323 10.0401 9.27567C10.0051 9.3581 9.99261 9.44971 10.0042 9.53959C10.0158 9.62948 10.051 9.71387 10.1056 9.78273Z" fill="#434343"/>
<defs>
<filter id="filter0_d_335_1238" x="0" y="0" width="35" height="29" filterUnits="userSpaceOnUse" color-interpolation-filters="sRGB">
<feFlood flood-opacity="0" result="BackgroundImageFix"/>
<feColorMatrix in="SourceAlpha" type="matrix" values="0 0 0 0 0 0 0 0 0 0 0 0 0 0 0 0 0 0 127 0" result="hardAlpha"/>
<feOffset/>
<feGaussianBlur stdDeviation="1"/>
<feComposite in2="hardAlpha" operator="out"/>
<feColorMatrix type="matrix" values="0 0 0 0 0 0 0 0 0 0 0 0 0 0 0 0 0 0 0.05 0"/>
<feBlend mode="normal" in2="BackgroundImageFix" result="effect1_dropShadow_335_1238"/>
<feBlend mode="normal" in="SourceGraphic" in2="effect1_dropShadow_335_1238" result="shape"/>
</filter>
</defs>
</svg>
