<svg width="23" height="24" viewBox="0 0 23 24" fill="none" xmlns="http://www.w3.org/2000/svg">
<path d="M23 7.96075V21.317C22.9993 22.0283 22.7299 22.7104 22.2507 23.2134C21.7716 23.7164 21.122 23.9993 20.4444 24H16.1852C15.7333 24 15.3 23.8115 14.9805 23.4761C14.661 23.1407 14.4815 22.6857 14.4815 22.2113V17.2924C14.4815 17.0552 14.3917 16.8277 14.232 16.66C14.0722 16.4923 13.8556 16.398 13.6296 16.398H9.37037C9.14445 16.398 8.92777 16.4923 8.76802 16.66C8.60827 16.8277 8.51852 17.0552 8.51852 17.2924V22.2113C8.51852 22.6857 8.33902 23.1407 8.01952 23.4761C7.70001 23.8115 7.26667 24 6.81482 24H2.55556C1.87799 23.9993 1.22837 23.7164 0.749252 23.2134C0.270139 22.7104 0.000676554 22.0283 0 21.317V7.96075C0.000637433 7.65188 0.0770863 7.34839 0.221971 7.07957C0.366855 6.81075 0.575284 6.58567 0.827148 6.42605L10.6234 0.255041C10.8883 0.0881572 11.1913 0 11.5002 0C11.8091 0 12.1121 0.0881572 12.377 0.255041L22.1733 6.42605C22.4251 6.58573 22.6334 6.81083 22.7782 7.07965C22.923 7.34846 22.9994 7.65192 23 7.96075Z" fill="white"/>
</svg>
