<svg width="40" height="20" viewBox="0 0 40 20" fill="none" xmlns="http://www.w3.org/2000/svg">
<path d="M20.58 14H22.07L19 10.53L22.02 7.05H20.59L17.89 10.22V7.05H16.75V14H17.89V10.89L20.58 14ZM24.7881 11.48V14H25.9281V11.48L28.2281 7.05H26.9681L25.3581 10.46L23.7481 7.05H22.4781L24.7881 11.48ZM28.7528 10.51C28.7528 12.6 30.3428 14.06 32.3028 14.06C33.7528 14.06 35.0028 13.34 35.5328 11.98H34.1628C33.7928 12.72 33.1328 13.07 32.3028 13.07C30.9228 13.07 29.9228 12.08 29.9228 10.51C29.9228 8.94 30.9228 7.96 32.3028 7.96C33.1328 7.96 33.7928 8.31 34.1628 9.05H35.5328C35.0028 7.69 33.7528 6.96 32.3028 6.96C30.3428 6.96 28.7528 8.43 28.7528 10.51Z" fill="#19A703"/>
<path d="M35.8333 20H4.16667C1.87 20 0 18.7533 0 17.2222V2.77778C0 1.24667 1.87 0 4.16667 0H35.8333C38.13 0 40 1.24667 40 2.77778V17.2222C40 18.7533 38.13 20 35.8333 20ZM4.16667 1.11111C2.78833 1.11111 1.66667 1.85889 1.66667 2.77778V17.2222C1.66667 18.1411 2.78833 18.8889 4.16667 18.8889H35.8333C37.2117 18.8889 38.3333 18.1411 38.3333 17.2222V2.77778C38.3333 1.85889 37.2117 1.11111 35.8333 1.11111H4.16667Z" fill="#19A703"/>
<path d="M8.12484 9.75004C6.632 9.75004 5.4165 8.53454 5.4165 7.04171C5.4165 5.54887 6.632 4.33337 8.12484 4.33337C9.61767 4.33337 10.8332 5.54887 10.8332 7.04171C10.8332 8.53454 9.61767 9.75004 8.12484 9.75004ZM8.12484 5.41671C7.22892 5.41671 6.49984 6.14579 6.49984 7.04171C6.49984 7.93762 7.22892 8.66671 8.12484 8.66671C9.02075 8.66671 9.74984 7.93762 9.74984 7.04171C9.74984 6.14579 9.02075 5.41671 8.12484 5.41671Z" fill="#19A703"/>
<path d="M12.4583 15.1667C12.1593 15.1667 11.9167 14.924 11.9167 14.625V13.5417C11.9167 12.6458 11.1876 11.9167 10.2917 11.9167H5.95833C5.06242 11.9167 4.33333 12.6458 4.33333 13.5417V14.625C4.33333 14.924 4.09067 15.1667 3.79167 15.1667C3.49267 15.1667 3.25 14.924 3.25 14.625V13.5417C3.25 12.0489 4.4655 10.8334 5.95833 10.8334H10.2917C11.7845 10.8334 13 12.0489 13 13.5417V14.625C13 14.924 12.7573 15.1667 12.4583 15.1667Z" fill="#19A703"/>
</svg>
