<svg width="22" height="30" viewBox="0 0 22 30" fill="none" xmlns="http://www.w3.org/2000/svg">
<path d="M15.4567 2.72468H13.4819C13.1073 1.66635 12.0962 0.90625 10.9106 0.90625C9.725 0.90625 8.71395 1.66635 8.33753 2.72468H6.36454C5.86265 2.72468 5.45532 3.13201 5.45532 3.6339V7.27076C5.45532 7.77264 5.86265 8.17997 6.36454 8.17997H15.4567C15.9586 8.17997 16.3659 7.77264 16.3659 7.27076V3.6339C16.3659 3.13201 15.9586 2.72468 15.4567 2.72468Z" fill="white"/>
<path d="M20.0027 4.54306H18.1843V7.27071C18.1843 8.77455 16.9605 9.99835 15.4567 9.99835H6.36451C4.86066 9.99835 3.63686 8.77455 3.63686 7.27071V4.54306H1.81843C0.816475 4.54306 0 5.35954 0 6.36149V28.1827C0 29.2028 0.798291 30.0011 1.81843 30.0011H20.0027C21.0229 30.0011 21.8212 29.2028 21.8212 28.1827V6.36149C21.8212 5.34135 21.0229 4.54306 20.0027 4.54306ZM10.6451 20.6434L7.00823 24.2803C6.83002 24.4567 6.59727 24.5458 6.36451 24.5458C6.13175 24.5458 5.89899 24.4567 5.72078 24.2803L3.90235 22.4619C3.54776 22.1073 3.54776 21.5308 3.90235 21.1762C4.25695 20.8216 4.83339 20.8216 5.18798 21.1762L6.36451 22.3509L9.35764 19.3578C9.71224 19.0032 10.2887 19.0032 10.6433 19.3578C10.9979 19.7124 10.9997 20.287 10.6451 20.6434ZM10.6451 13.3697L7.00823 17.0066C6.83002 17.183 6.59727 17.2721 6.36451 17.2721C6.13175 17.2721 5.89899 17.183 5.72078 17.0066L3.90235 15.1882C3.54776 14.8336 3.54776 14.2571 3.90235 13.9025C4.25695 13.5479 4.83339 13.5479 5.18798 13.9025L6.36451 15.0772L9.35764 12.0841C9.71224 11.7295 10.2887 11.7295 10.6433 12.0841C10.9979 12.4387 10.9997 13.0133 10.6451 13.3697ZM17.2751 22.7274H13.6382C13.1363 22.7274 12.729 22.32 12.729 21.8181C12.729 21.3163 13.1363 20.9089 13.6382 20.9089H17.2751C17.777 20.9089 18.1843 21.3163 18.1843 21.8181C18.1843 22.32 17.777 22.7274 17.2751 22.7274ZM17.2751 15.4536H13.6382C13.1363 15.4536 12.729 15.0463 12.729 14.5444C12.729 14.0425 13.1363 13.6352 13.6382 13.6352H17.2751C17.777 13.6352 18.1843 14.0425 18.1843 14.5444C18.1843 15.0463 17.777 15.4536 17.2751 15.4536Z" fill="white"/>
</svg>
