<svg width="19" height="18" viewBox="0 0 19 18" fill="none" xmlns="http://www.w3.org/2000/svg">
<path d="M17.7556 13.7624C17.1978 13.2946 13.9265 11.2231 13.3828 11.3182C13.1275 11.3635 12.9322 11.5811 12.4096 12.2046C12.1679 12.5115 11.9024 12.7989 11.6157 13.0642C11.0903 12.9373 10.5818 12.7488 10.1006 12.5026C8.21371 11.584 6.68932 10.0591 5.77121 8.17193C5.52502 7.69079 5.33652 7.18225 5.20961 6.65689C5.47492 6.37015 5.76235 6.10471 6.06924 5.86299C6.6921 5.34032 6.91036 5.14632 6.95567 4.88977C7.05076 4.34476 4.97731 1.07473 4.51144 0.516958C4.31616 0.285937 4.13875 0.130859 3.91155 0.130859C3.25295 0.130859 0.273926 3.81444 0.273926 4.29179C0.273926 4.33072 0.337744 8.16555 5.18089 13.0929C10.1083 17.9361 13.9431 17.9999 13.982 17.9999C14.4594 17.9999 18.143 15.0209 18.143 14.3623C18.143 14.1351 17.9879 13.9577 17.7556 13.7624Z" fill="#19A703"/>
</svg>
