<svg width="28" height="29" viewBox="0 0 28 29" fill="none" xmlns="http://www.w3.org/2000/svg">
<path d="M14.7684 3.16419L17.2358 11.3188V11.5488H17.4858H24.9879C26.3768 11.5488 26.9577 13.3341 25.8196 14.1589C25.8194 14.159 25.8193 14.1591 25.8191 14.1592L19.6835 18.5583L19.5372 18.6633L19.5903 18.8353L22.0011 26.6365L22.0012 26.6368C22.4185 27.98 20.8652 29.0572 19.7624 28.209L19.7619 28.2086L13.541 23.4534L13.3895 23.3376L13.2377 23.4532L7.01685 28.1914L7.01592 28.1921C5.91321 29.0402 4.35987 27.9631 4.77712 26.6199L4.77723 26.6196L7.18802 18.8184L7.24119 18.6463L7.09484 18.5414L0.958283 14.1416L0.957549 14.1411C-0.176258 13.3343 0.398965 11.5318 1.79041 11.5318H9.29252H9.47771L9.53167 11.3547L12.0268 3.16431L12.0268 3.16431L12.0275 3.16189C12.428 1.79787 14.3501 1.78875 14.7684 3.16419Z" fill="#D9D9D9" stroke="#A7A7A7" stroke-width="0.5"/>
<path d="M27.4999 6.76892C27.4999 10.2329 24.7028 13.0378 21.2564 13.0378C17.81 13.0378 15.0129 10.2329 15.0129 6.76892C15.0129 3.30491 17.81 0.5 21.2564 0.5C24.7028 0.5 27.4999 3.30491 27.4999 6.76892Z" fill="#D0EEFF" stroke="white"/>
<path d="M19.7382 10V4.18182H21.7041C22.1606 4.18182 22.5337 4.2642 22.8235 4.42898C23.1151 4.59186 23.331 4.8125 23.4712 5.09091C23.6113 5.36932 23.6814 5.67992 23.6814 6.02273C23.6814 6.36553 23.6113 6.67708 23.4712 6.95739C23.3329 7.23769 23.1189 7.46117 22.8291 7.62784C22.5394 7.79261 22.1682 7.875 21.7155 7.875H20.3064V7.25H21.6928C22.0053 7.25 22.2562 7.19602 22.4456 7.08807C22.635 6.98011 22.7723 6.83428 22.8576 6.65057C22.9447 6.46496 22.9882 6.25568 22.9882 6.02273C22.9882 5.78977 22.9447 5.58144 22.8576 5.39773C22.7723 5.21402 22.6341 5.07008 22.4428 4.96591C22.2515 4.85985 21.9977 4.80682 21.6814 4.80682H20.4428V10H19.7382Z" fill="#2196F3"/>
</svg>
