<svg width="30" height="27" viewBox="0 0 30 27" fill="none" xmlns="http://www.w3.org/2000/svg">
<path d="M26.3392 5.32282H20.0379V2.72325C20.0379 1.48546 19.0543 0.478516 17.8453 0.478516H11.4118C10.2028 0.478516 9.21922 1.48546 9.21922 2.72325V5.32282H2.91794C1.31274 5.32282 0.00676054 6.65989 0.00676054 8.30332C0.00676054 9.79612 -0.142565 11.1368 0.962376 12.6444C1.58754 13.4974 2.44664 14.1059 3.44677 14.404L13.1587 17.299C14.1202 17.5856 15.1367 17.5857 16.0983 17.299L25.8102 14.404C26.8104 14.1058 27.6695 13.4974 28.2946 12.6444C29.4045 11.13 29.2502 9.77556 29.2502 8.30332C29.2503 6.65989 27.9444 5.32282 26.3392 5.32282ZM11.0764 2.72325C11.0764 2.53388 11.2268 2.37987 11.4118 2.37987H17.8453C18.0303 2.37987 18.1807 2.53394 18.1807 2.72325V5.32282H11.0764V2.72325Z" fill="white"/>
<path d="M26.3294 16.2295C15.8539 19.3521 15.9895 19.4153 14.6284 19.4153C13.2771 19.4153 13.5977 19.4102 2.92759 16.2296C1.80257 15.8942 0.806213 15.276 0.00671387 14.4238V23.5477C0.00671387 25.1911 1.31263 26.5281 2.9179 26.5281H26.3391C27.9443 26.5281 29.2502 25.1911 29.2502 23.5477V14.4238C28.4507 15.2759 27.4543 15.8942 26.3294 16.2295Z" fill="white"/>
</svg>
